<!-- Generator: Adobe Illustrator 21.1.0, SVG Export Plug-In  -->
<svg version="1.1"
	 xmlns="http://www.w3.org/2000/svg" xmlns:xlink="http://www.w3.org/1999/xlink" xmlns:a="http://ns.adobe.com/AdobeSVGViewerExtensions/3.0/"
	 x="0px" y="0px" width="246.958px" height="89.193px" viewBox="0 0 246.958 89.193"
	 style="enable-background:new 0 0 246.958 89.193;" xml:space="preserve">
<defs>
</defs>
<g>
	<path d="M0.947,0.035c0.996,0.059,1.936,0.103,2.821,0.132c0.885,0.029,1.673,0.044,2.364,0.044c0.715,0,1.515-0.015,2.4-0.044
		c0.885-0.029,1.908-0.073,3.067-0.132v1.582c-0.07,0-0.17-0.006-0.3-0.018c-0.129-0.011-0.217-0.018-0.264-0.018
		c-0.777-0.095-1.544,0.242-2,0.879C8.573,3.73,8.393,5.086,8.508,6.433c0,0.305,0.006,0.855,0.018,1.652
		c0.012,0.797,0.018,1.447,0.018,1.951l0.035,12.34l0.105,0.018c1.512,0.094,2.655,0.141,3.428,0.141
		c2.941,0,4.869-0.305,5.783-0.914c1.104-0.888,1.893-2.109,2.25-3.48l1.617,0.492c-0.363,1.067-0.689,2.139-0.976,3.217
		s-0.536,2.168-0.747,3.27c-2.074-0.07-4.002-0.123-5.783-0.158c-1.781-0.035-3.41-0.053-4.887-0.053
		c-1.467,0-2.94,0.018-4.421,0.053S1.994,25.05,0.527,25.12v-1.547h0.492c0.494,0.02,0.987-0.045,1.459-0.193
		c0.317-0.11,0.581-0.336,0.738-0.633c0.328-0.644,0.504-3.052,0.527-7.225c0.011-0.539,0.017-0.949,0.018-1.23l0.035-3.832
		c0-0.515,0.006-1.192,0.018-2.03s0.018-1.421,0.018-1.749C3.939,5.283,3.763,3.878,3.313,2.55c-0.407-0.679-1.174-1.057-1.96-0.967
		h-0.4L0.947,0.035z"/>
	<path d="M26.011,0c1.992,0.082,3.832,0.144,5.52,0.185s3.17,0.062,4.447,0.062c2.145,0,3.958-0.021,5.44-0.062
		S44.28,0.082,45.558,0c0.023,1.019,0.07,2.024,0.141,3.015c0.071,0.991,0.171,1.991,0.3,3l-1.582,0.211
		c-0.006-1.159-0.54-2.253-1.45-2.971c-0.8-0.515-2.408-0.773-4.825-0.773c-0.433,0-1.01,0.009-1.731,0.026
		s-1.603,0.044-2.646,0.079c-0.024,1.547-0.045,3.029-0.062,4.447s-0.038,2.777-0.062,4.078h0.51c0.679,0,1.526,0.006,2.54,0.018
		c1.014,0.012,1.691,0.018,2.03,0.018c1.083,0.095,2.174-0.068,3.182-0.475c0.559-0.427,0.864-1.109,0.809-1.811l1.3,0.123
		c0,0.586-0.018,1.321-0.053,2.206s-0.053,1.485-0.053,1.8c0,0.317,0.009,0.721,0.026,1.213s0.044,1.084,0.079,1.775l-1.477,0.105
		v-0.211c0.101-0.787-0.232-1.567-0.87-2.039c-0.58-0.351-1.947-0.527-4.1-0.527h-3.955v2.021c0,1.043,0.006,2.113,0.018,3.208
		s0.03,2.399,0.053,3.911c0.527,0.07,1.187,0.126,1.978,0.167s1.656,0.062,2.593,0.062c2.8,0,4.667-0.293,5.6-0.879
		c1.111-0.839,1.906-2.028,2.259-3.375l1.617,0.51c-0.387,1.125-0.718,2.198-0.993,3.217c-0.275,1.019-0.507,2.01-0.694,2.971
		c-2.766-0.094-4.969-0.158-6.609-0.193s-3.099-0.052-4.377-0.053c-1.441,0-3.744,0.053-6.908,0.158
		c-1.09,0.035-1.916,0.065-2.479,0.088v-1.547c0.07,0.012,0.149,0.021,0.237,0.026c0.088,0.006,0.22,0.009,0.4,0.009
		c0.783,0.094,1.554-0.255,2-0.905c0.351-0.603,0.527-2.188,0.527-4.755v-3.375l0.035-3.92c0-0.176,0.006-0.44,0.018-0.791
		c0.035-1.441,0.053-2.426,0.053-2.953s-0.006-1.078-0.018-1.652s-0.018-0.89-0.018-0.949c0.077-0.753-0.119-1.508-0.554-2.127
		c-0.532-0.456-1.228-0.673-1.925-0.6h-0.4L26.011,0z"/>
	<path d="M53,0c1.992,0.082,3.832,0.144,5.52,0.185s3.17,0.062,4.447,0.062c2.145,0,3.958-0.021,5.44-0.062S71.269,0.082,72.547,0
		c0.023,1.019,0.07,2.024,0.141,3.015c0.071,0.991,0.171,1.991,0.3,3l-1.582,0.211c-0.006-1.159-0.54-2.253-1.45-2.971
		c-0.8-0.515-2.408-0.773-4.825-0.773c-0.433,0-1.01,0.009-1.731,0.026s-1.603,0.044-2.646,0.079
		c-0.024,1.547-0.045,3.029-0.062,4.447s-0.038,2.777-0.062,4.078h0.51c0.679,0,1.526,0.006,2.54,0.018
		c1.014,0.012,1.691,0.018,2.03,0.018c1.083,0.095,2.174-0.068,3.182-0.475c0.559-0.427,0.864-1.109,0.809-1.811l1.3,0.123
		c0,0.586-0.018,1.321-0.053,2.206s-0.053,1.485-0.053,1.8c0,0.317,0.009,0.721,0.026,1.213s0.044,1.084,0.079,1.775l-1.477,0.105
		v-0.211c0.101-0.787-0.232-1.567-0.87-2.039c-0.58-0.351-1.947-0.527-4.1-0.527h-3.955v2.021c0,1.043,0.006,2.113,0.018,3.208
		s0.03,2.399,0.053,3.911c0.527,0.07,1.187,0.126,1.978,0.167s1.656,0.062,2.593,0.062c2.8,0,4.667-0.293,5.6-0.879
		c1.111-0.839,1.906-2.028,2.259-3.375l1.617,0.51c-0.387,1.125-0.718,2.198-0.993,3.217c-0.275,1.019-0.507,2.01-0.694,2.971
		c-2.766-0.094-4.969-0.158-6.609-0.193s-3.099-0.052-4.377-0.053c-1.441,0-3.744,0.053-6.908,0.158
		c-1.09,0.035-1.916,0.065-2.479,0.088v-1.547c0.07,0.012,0.149,0.021,0.237,0.026c0.088,0.006,0.22,0.009,0.4,0.009
		c0.783,0.094,1.554-0.255,2-0.905c0.351-0.603,0.527-2.188,0.527-4.755v-3.375l0.035-3.92c0-0.176,0.006-0.44,0.018-0.791
		c0.035-1.441,0.053-2.426,0.053-2.953s-0.006-1.078-0.018-1.652s-0.018-0.89-0.018-0.949c0.077-0.753-0.119-1.508-0.554-2.127
		c-0.532-0.456-1.228-0.673-1.925-0.6h-0.4L53,0z"/>
	<path d="M93.204,0.035c1.254,0.07,2.332,0.123,3.234,0.158c0.902,0.035,1.623,0.053,2.162,0.053c0.515,0,1.175-0.015,1.978-0.044
		c0.803-0.029,1.896-0.073,3.278-0.132v1.529h-0.352c-0.799-0.111-1.601,0.178-2.145,0.774c-0.351,0.516-0.527,1.935-0.527,4.257
		v11.892c0,2.346,0.176,3.774,0.527,4.284c0.516,0.58,1.287,0.867,2.057,0.765c0.059,0,0.161-0.006,0.308-0.018
		s0.261-0.018,0.343-0.018v1.582c-0.363-0.011-0.885-0.035-1.564-0.07c-1.969-0.094-3.305-0.141-4.008-0.141
		c-0.586,0-1.336,0.018-2.25,0.053s-1.986,0.088-3.217,0.158v-1.582c0.082,0.012,0.17,0.021,0.264,0.026
		c0.094,0.006,0.229,0.009,0.4,0.009c0.765,0.092,1.514-0.264,1.925-0.915c0.333-0.61,0.5-2.07,0.5-4.381v-1.812
		c0-0.563-0.003-0.988-0.009-1.275s-0.015-0.566-0.026-0.836v-3.853c0-0.621,0.006-1.41,0.018-2.366s0.018-1.61,0.018-1.961
		c0.113-1.285-0.058-2.579-0.5-3.791c-0.447-0.6-1.183-0.912-1.925-0.818c-0.035,0-0.112,0.006-0.229,0.018S93.259,1.598,93.2,1.598
		L93.204,0.035z M108.286,0.035l0.932,0.053c1.91,0.105,3.258,0.158,4.043,0.158c0.609,0,1.781-0.053,3.516-0.158
		c0.457-0.023,0.821-0.041,1.09-0.053v1.564h-0.334c-1.383,0-2.959,0.844-4.729,2.533l-0.018,0.018l-7.242,6.949l7.787,8.145
		c0.246,0.258,0.592,0.628,1.037,1.109c2.004,2.146,3.539,3.219,4.605,3.219c0.141,0,0.246,0,0.316-0.009
		c0.065-0.005,0.129-0.014,0.193-0.026l-0.018,1.582c-0.235-0.011-0.592-0.035-1.072-0.07c-1.533-0.094-2.576-0.141-3.129-0.141
		c-0.328,0-1.095,0.035-2.3,0.105c-0.738,0.047-1.324,0.082-1.758,0.105c0.01-0.033,0.019-0.066,0.026-0.1
		c0.007-0.049,0.01-0.099,0.009-0.149c0-0.762-1.933-3.16-5.8-7.195c-1.922-1.993-3.457-3.606-4.605-4.838l6.486-6.843l0.246-0.282
		c1.746-1.853,2.619-2.937,2.619-3.254c0.02-0.269-0.117-0.526-0.352-0.659c-0.365-0.16-0.763-0.228-1.16-0.2h-0.387L108.286,0.035z
		"/>
	<path d="M123.59,0c1.992,0.082,3.832,0.144,5.52,0.185s3.17,0.062,4.447,0.062c2.145,0,3.958-0.021,5.44-0.062
		s2.862-0.103,4.14-0.185c0.023,1.019,0.07,2.024,0.141,3.015c0.071,0.991,0.171,1.991,0.3,3l-1.582,0.211
		c-0.006-1.159-0.54-2.253-1.45-2.971c-0.8-0.515-2.408-0.773-4.825-0.773c-0.433,0-1.01,0.009-1.731,0.026
		s-1.603,0.044-2.646,0.079c-0.024,1.547-0.045,3.029-0.062,4.447s-0.038,2.777-0.062,4.078h0.51c0.679,0,1.526,0.006,2.54,0.018
		c1.014,0.012,1.691,0.018,2.03,0.018c1.083,0.095,2.174-0.068,3.182-0.475c0.559-0.427,0.864-1.109,0.809-1.811l1.3,0.123
		c0,0.586-0.018,1.321-0.053,2.206s-0.053,1.485-0.053,1.8c0,0.317,0.009,0.721,0.026,1.213s0.044,1.084,0.079,1.775l-1.479,0.107
		v-0.211c0.101-0.787-0.232-1.567-0.87-2.039c-0.58-0.351-1.947-0.527-4.1-0.527h-3.955v2.021c0,1.043,0.006,2.113,0.018,3.208
		s0.03,2.399,0.053,3.911c0.527,0.07,1.187,0.126,1.978,0.167s1.656,0.062,2.593,0.062c2.8,0,4.667-0.293,5.6-0.879
		c1.111-0.839,1.906-2.028,2.259-3.375l1.617,0.51c-0.387,1.125-0.718,2.198-0.993,3.217c-0.275,1.019-0.507,2.01-0.694,2.971
		c-2.766-0.094-4.969-0.158-6.609-0.193s-3.099-0.052-4.377-0.053c-1.441,0-3.744,0.053-6.908,0.158
		c-1.09,0.035-1.916,0.065-2.479,0.088v-1.547c0.07,0.012,0.149,0.021,0.237,0.026c0.088,0.006,0.22,0.009,0.4,0.009
		c0.783,0.094,1.554-0.255,2-0.905c0.351-0.603,0.527-2.188,0.527-4.755v-3.375l0.035-3.92c0-0.176,0.006-0.44,0.018-0.791
		c0.035-1.441,0.053-2.426,0.053-2.953s-0.006-1.078-0.018-1.652s-0.018-0.89-0.018-0.949c0.077-0.753-0.119-1.508-0.554-2.127
		c-0.532-0.456-1.228-0.673-1.925-0.6h-0.4L123.59,0z"/>
	<path d="M150.302,23.572c0.094,0.012,0.185,0.021,0.272,0.026c0.088,0.006,0.226,0.009,0.413,0.009
		c0.778,0.093,1.538-0.278,1.942-0.949c0.333-0.633,0.5-2.308,0.5-5.027v-3.165l0.07-3.937c0.011-0.832,0.02-1.658,0.026-2.479
		s0.009-1.805,0.009-2.953c0.109-0.987-0.078-1.984-0.536-2.865c-0.543-0.502-1.279-0.739-2.013-0.65h-0.369V0.035
		c1.254,0.059,2.291,0.103,3.111,0.132c0.82,0.029,1.535,0.044,2.145,0.044c0.867,0,1.945-0.029,3.234-0.088s2.156-0.088,2.6-0.088
		c2.424-0.133,4.829,0.5,6.873,1.811c2.704,1.939,3.324,5.702,1.385,8.406c-0.042,0.058-0.084,0.115-0.128,0.172
		c-1.023,1.19-2.316,2.119-3.771,2.707l3.445,4.852c1.012,1.737,2.218,3.352,3.595,4.816c0.656,0.616,1.517,0.967,2.417,0.984
		c0.067-0.002,0.134-0.008,0.2-0.018c0.066-0.01,0.133-0.016,0.2-0.018v1.477c-0.715,0.059-1.336,0.103-1.863,0.132
		s-0.99,0.044-1.389,0.044c-1.138,0.044-2.276-0.117-3.357-0.475c-0.854-0.35-1.605-0.913-2.18-1.635
		c-0.305-0.363-1.055-1.532-2.25-3.507c-1.195-1.975-2.244-3.665-3.146-5.071c-0.727,0.024-1.371,0.042-1.934,0.053
		c-0.563,0.011-1.108,0.017-1.635,0.018v4.676c0,1.793,0.176,2.921,0.527,3.384c0.548,0.538,1.313,0.794,2.074,0.694h0.492v1.582
		c-0.961-0.059-1.922-0.103-2.883-0.132c-0.961-0.029-1.946-0.044-2.953-0.044c-0.328,0-0.811,0.009-1.45,0.026
		s-1.866,0.067-3.683,0.149L150.302,23.572z M158.177,12.48c0.621,0.035,1.149,0.062,1.582,0.079s0.797,0.026,1.09,0.026
		c0.363,0,0.75-0.009,1.16-0.026c0.41-0.017,0.838-0.044,1.283-0.079c0.918-0.554,1.687-1.323,2.241-2.241
		c0.491-0.902,0.736-1.917,0.712-2.944c0.05-1.347-0.492-2.648-1.485-3.56c-1.091-0.945-2.505-1.432-3.946-1.362
		c-0.504,0-0.964,0.018-1.38,0.053c-0.416,0.035-0.823,0.088-1.222,0.158c-0.012,1.277-0.021,2.613-0.026,4.008
		S158.178,9.949,158.177,12.48L158.177,12.48z"/>
	<path d="M179.175,17.986c0.235-0.621,0.449-1.234,0.642-1.837c0.193-0.603,0.36-1.186,0.5-1.749c0.351,0,0.855,0.006,1.512,0.018
		c1.533,0.035,2.541,0.053,3.023,0.053c1.242,0,2.25-0.006,3.023-0.018c0.773-0.012,1.529-0.03,2.268-0.053
		c-0.258,0.645-0.481,1.263-0.668,1.854c-0.187,0.591-0.346,1.168-0.475,1.731c-1.16-0.035-2.136-0.062-2.927-0.079
		c-0.791-0.017-1.404-0.026-1.837-0.026c-0.586,0-1.301,0.009-2.145,0.026S180.275,17.95,179.175,17.986z"/>
	<path d="M190.805,0.035c1.277,0.059,2.361,0.103,3.252,0.132c0.891,0.029,1.682,0.044,2.373,0.044c0.503,0,1.142-0.015,1.916-0.044
		c0.774-0.029,1.841-0.073,3.2-0.132v1.582c-0.581-0.027-1.163,0.04-1.723,0.2c-0.31,0.07-0.534,0.341-0.545,0.659
		c0.087,0.678,0.326,1.328,0.7,1.9l0.3,0.545l3.885,6.943l1.178-2.039c2.485-4.313,3.727-6.727,3.727-7.242
		c0.021-0.303-0.135-0.59-0.4-0.738c-0.397-0.178-0.832-0.257-1.266-0.229h-0.387V0.034c1.031,0.059,1.872,0.103,2.522,0.132
		c0.65,0.029,1.198,0.044,1.644,0.044c0.467,0,1.038-0.015,1.714-0.044c0.676-0.029,1.523-0.073,2.54-0.132v1.529
		c-0.053,0-0.105-0.003-0.158-0.009c-0.059-0.006-0.147-0.009-0.264-0.009c-1.137,0-2.503,1.3-4.1,3.9
		c-0.351,0.6-0.633,1.062-0.844,1.387l-4.711,7.552l0.035,5.62c-0.091,1,0.104,2.006,0.563,2.9c0.557,0.508,1.309,0.746,2.057,0.65
		c0.07,0,0.187-0.006,0.352-0.018s0.287-0.018,0.369-0.018v1.6c-1.289-0.07-2.438-0.123-3.445-0.158
		c-1.007-0.035-1.863-0.053-2.566-0.053c-0.633,0-1.899,0.041-3.8,0.123c-0.8,0.035-1.427,0.065-1.881,0.088v-1.6
		c0.094,0,0.226,0.006,0.4,0.018s0.29,0.018,0.36,0.018c0.767,0.095,1.537-0.156,2.1-0.685c0.467-0.853,0.672-1.824,0.589-2.793
		l0.035-5.55l-5.871-9.818c-0.082-0.141-0.205-0.346-0.369-0.615c-1.019-1.674-2.01-2.511-2.971-2.512c-0.129,0-0.231,0-0.308,0.009
		s-0.144,0.009-0.2,0.009L190.805,0.035z"/>
	<path d="M230.331,0.035v1.582c-0.07,0-0.17-0.006-0.3-0.018c-0.129-0.011-0.223-0.018-0.281-0.018
		c-0.782-0.098-1.555,0.235-2.021,0.87c-0.351,0.58-0.527,2.054-0.527,4.421v4.025c0,2.367,0.041,4.046,0.123,5.036
		c0.045,0.797,0.187,1.585,0.422,2.347c0.385,1.312,1.218,2.448,2.355,3.208c1.241,0.777,2.685,1.165,4.148,1.116
		c1.184,0.033,2.361-0.198,3.445-0.677c0.953-0.455,1.758-1.171,2.32-2.065c0.444-0.747,0.734-1.575,0.853-2.435
		c0.2-1.483,0.286-2.978,0.255-4.474c0-0.375-0.006-0.999-0.018-1.872s-0.018-1.556-0.018-2.048V7.186
		c0-2.473-0.176-4.025-0.527-4.658c-0.436-0.678-1.221-1.047-2.021-0.949c-0.152,0-0.27,0-0.352,0.009s-0.158,0.009-0.229,0.009
		V0.033c1.09,0.059,1.995,0.103,2.716,0.132c0.721,0.029,1.339,0.044,1.854,0.044c0.481,0,1.064-0.015,1.749-0.044
		c0.685-0.029,1.579-0.073,2.681-0.132v1.582h-0.281c-0.532-0.029-1.064,0.052-1.564,0.237c-0.348,0.168-0.615,0.469-0.738,0.835
		c-0.223,0.586-0.363,3.135-0.422,7.646c0,0.645-0.006,1.143-0.018,1.494v0.967c-0.024,4.008-0.457,6.762-1.3,8.262
		c-0.858,1.513-2.158,2.728-3.727,3.48c-1.787,0.852-3.75,1.274-5.73,1.23c-1.827,0.034-3.642-0.304-5.335-0.993
		c-2.591-1.018-4.501-3.264-5.089-5.985c-0.331-1.761-0.472-3.553-0.422-5.344c0-0.633,0.018-1.758,0.053-3.375
		c0.035-1.617,0.053-2.912,0.053-3.885c0-2.051-0.167-3.325-0.5-3.823c-0.492-0.566-1.235-0.847-1.978-0.747h-0.422V0.032
		c1.324,0.059,2.399,0.103,3.226,0.132c0.827,0.029,1.539,0.044,2.136,0.044c0.551,0,1.242-0.015,2.074-0.044
		C227.806,0.135,228.925,0.092,230.331,0.035z"/>
	<path d="M33.427,76.467c-0.367,0.262-0.81,0.395-1.26,0.378c-1.067,0-2.138-0.028-3.213-0.084
		c-1.075-0.056-2.146-0.084-3.213-0.084c-1.288,0-2.562,0.028-3.822,0.084c-1.26,0.056-2.534,0.112-3.822,0.168
		c0,0.952,0.049,1.988,0.147,3.108c0.098,1.11,0.126,2.225,0.084,3.339c-0.036,1.07-0.22,2.13-0.546,3.15
		c-0.33,1.005-0.952,1.889-1.785,2.541c-0.213,0.005-0.418-0.079-0.567-0.231l-0.441-0.441c-0.638-0.666-1.311-1.297-2.016-1.89
		c-0.7-0.588-1.386-1.19-2.058-1.806v-0.084c0.759,0,1.517,0.057,2.268,0.168c0.751,0.112,1.509,0.168,2.268,0.168
		c0.31-0.53,0.516-1.115,0.609-1.722c0.127-0.714,0.197-1.438,0.21-2.163c0.016-0.736-0.018-1.473-0.1-2.205
		c-0.067-0.621-0.165-1.237-0.294-1.848c-1.512,0.141-2.996,0.295-4.452,0.462c-1.456,0.167-2.94,0.391-4.452,0.672
		c-0.7,0.141-1.386,0.302-2.058,0.483c-0.673,0.183-1.362,0.302-2.058,0.357c-0.542,0.059-1.09-0.043-1.575-0.294
		C0.793,78.443,0.358,78.1,0,77.685c0.002-0.091,0.009-0.182,0.021-0.273c0.014-0.126,0.063-0.189,0.147-0.189l15.414-1.428
		c-0.057-0.449-0.301-0.853-0.672-1.113c-0.372-0.274-0.71-0.592-1.008-0.945v-0.924c0.455-0.006,0.902,0.126,1.281,0.378
		c0.378,0.252,0.763,0.49,1.155,0.714l2.772-3.654c0.035-0.305-0.136-0.596-0.42-0.714c-1.196,0.167-2.377,0.435-3.528,0.8
		c-1.149,0.364-2.282,0.77-3.4,1.218c-0.26-0.003-0.52-0.024-0.777-0.063c-0.282-0.039-0.558-0.116-0.819-0.231
		c-0.247-0.108-0.474-0.257-0.672-0.441c-0.202-0.193-0.322-0.456-0.336-0.735l0.084-0.126l0.21-0.126
		c0.704,0.083,1.414,0.097,2.121,0.042c0.65-0.054,1.295-0.153,1.932-0.294c0.639-0.142,1.27-0.318,1.89-0.525
		c0.63-0.21,1.297-0.427,2-0.651c0.307-0.084,0.622-0.182,0.945-0.294c0.305-0.108,0.623-0.179,0.945-0.21
		c0.683-0.006,1.348,0.215,1.89,0.63c0.57,0.386,1.106,0.821,1.6,1.3l0.042,0.546c-0.162,0.221-0.403,0.371-0.672,0.42
		c-0.268,0.051-0.524,0.151-0.756,0.294c-0.819,0.396-1.599,0.867-2.331,1.407c-0.742,0.546-1.449,1.113-2.121,1.7
		c0.2,0.06,0.362,0.207,0.441,0.4c0.097,0.21,0.188,0.413,0.273,0.609c0.062,0.168,0.172,0.313,0.315,0.42
		c0.126,0.084,0.343,0.028,0.651-0.168l9.912-1.428c0.46-0.057,0.926-0.057,1.386,0c0.56,0.056,1.11,0.183,1.638,0.378
		c0.496,0.176,0.953,0.448,1.344,0.8C33.247,75.532,33.441,75.991,33.427,76.467z M34.057,68.151l-0.252,0.252
		c-2.199,0.541-4.456,0.81-6.72,0.8c-0.973-0.471-1.895-1.041-2.751-1.7c-0.855-0.658-1.681-1.351-2.478-2.079
		s-1.581-1.477-2.352-2.247c-0.77-0.77-1.547-1.503-2.331-2.2c-0.028,0.225-0.042,0.701-0.042,1.428s-0.028,1.483-0.084,2.268
		c-0.046,0.697-0.13,1.391-0.252,2.079c-0.112,0.6-0.279,0.9-0.5,0.9l-0.21-0.084c-0.342-0.346-0.575-0.784-0.672-1.26
		c-0.115-0.526-0.178-1.062-0.189-1.6c-0.015-0.554,0.006-1.108,0.063-1.659c0.053-0.495,0.081-0.993,0.084-1.491
		c-0.7,0.756-1.547,1.623-2.541,2.6c-1.015,0.999-2.08,1.945-3.192,2.835c-1.088,0.879-2.247,1.666-3.465,2.352
		c-1.013,0.605-2.145,0.984-3.318,1.113c-0.295,0.018-0.588-0.055-0.84-0.21c0.559-0.475,1.156-0.904,1.785-1.281
		c0.63-0.378,1.253-0.763,1.869-1.155c0.756-0.504,1.526-1.05,2.31-1.638c0.787-0.591,1.544-1.222,2.268-1.89
		c0.718-0.661,1.398-1.362,2.037-2.1c0.615-0.708,1.171-1.467,1.659-2.268c-0.63,0.005-1.257,0.083-1.869,0.231
		c-0.65,0.153-1.31,0.265-1.974,0.336c-0.63,0.071-1.268,0.043-1.89-0.084C7.57,60.25,7,59.887,6.594,59.37
		c0.021-0.246,0.216-0.441,0.462-0.462l8.274-0.714l0.126-0.084c-0.084-0.728-0.147-1.47-0.189-2.226
		c-0.038-0.743-0.262-1.465-0.651-2.1c-0.057-0.476,0.083-0.735,0.42-0.777c0.397-0.032,0.795,0.041,1.155,0.21
		c0.451,0.192,0.881,0.431,1.281,0.714c0.302,0.187,0.572,0.421,0.8,0.693c-0.058,0.545-0.178,1.082-0.357,1.6
		c-0.183,0.533-0.344,1.051-0.483,1.554c0.725-0.012,1.445-0.117,2.142-0.315c0.784-0.21,1.575-0.385,2.373-0.525
		c0.755-0.137,1.524-0.18,2.289-0.126c0.717,0.052,1.39,0.366,1.89,0.882c0.12,0.138,0.181,0.318,0.168,0.5l-0.378,0.336
		c-1.428,0.084-2.849,0.189-4.263,0.315s-2.835,0.301-4.263,0.525c-0.096,0.084-0.143,0.21-0.126,0.336
		c0.447,0.364,1.014,0.812,1.7,1.344s1.407,1.065,2.163,1.6c0.756,0.533,1.498,1.016,2.226,1.449c0.583,0.363,1.202,0.665,1.848,0.9
		c1.067,0.393,2.138,0.764,3.213,1.113s2.146,0.72,3.213,1.113c0.363,0.141,0.741,0.267,1.134,0.378
		c0.388,0.111,0.767,0.251,1.134,0.42c0.024,0.026,0.053,0.047,0.084,0.063C34.008,68.104,34.034,68.126,34.057,68.151z"/>
	<path d="M74.461,58.575l-0.462,0.252c-1.708-0.14-3.416-0.259-5.124-0.357c-1.709-0.098-3.423-0.049-5.124,0.147
		c0.226,0.141,0.443,0.296,0.651,0.462c0.207,0.165,0.384,0.364,0.525,0.588c-0.028,1.036-0.098,2.058-0.21,3.066
		c-0.113,1.018-0.169,2.042-0.168,3.066v10c0,0.867,0.028,1.791,0.084,2.772c0.056,0.973,0.042,1.948-0.042,2.919
		c-0.078,0.938-0.276,1.863-0.588,2.751c-0.309,0.869-0.829,1.648-1.512,2.268h-0.588l-4.578-4.662l-0.126-0.378l0.126-0.168
		c0.652,0.058,1.294,0.199,1.911,0.42c0.627,0.224,1.287,0.337,1.953,0.336c0.208-0.157,0.379-0.357,0.5-0.588
		c0.13-0.216,0.202-0.462,0.21-0.714l0.21-17.6c-0.002-0.344-0.023-0.687-0.063-1.029c-0.042-0.378-0.098-0.763-0.168-1.155
		c-0.07-0.392-0.154-0.777-0.252-1.155c-0.085-0.335-0.19-0.665-0.315-0.987c-1.848,0.196-3.681,0.392-5.5,0.588
		c-1.819,0.196-3.652,0.476-5.5,0.84c-0.588,0.141-1.176,0.274-1.764,0.4s-1.162,0.273-1.722,0.441
		c-0.252,0.084-0.5,0.168-0.735,0.252c-0.24,0.085-0.486,0.155-0.735,0.21c-0.685,0.104-1.384-0.038-1.974-0.4
		c-0.608-0.324-1.15-0.759-1.6-1.281c-0.001-0.136,0.021-0.271,0.063-0.4c0.044-0.128,0.145-0.229,0.273-0.273
		c0.304-0.064,0.614-0.092,0.924-0.084h1.092c1.707-0.139,3.359-0.306,4.956-0.5l16.3-1.932c1.119-0.139,2.141-0.306,3.066-0.5
		c0.305-0.082,0.605-0.18,0.9-0.294c0.286-0.12,0.59-0.191,0.9-0.21c0.168,0,0.335,0.007,0.5,0.021
		c0.168,0.014,0.336,0.021,0.5,0.021c0.195,0.112,0.503,0.266,0.924,0.462c0.416,0.193,0.818,0.418,1.2,0.672
		c0.347,0.225,0.659,0.501,0.924,0.819C74.533,57.919,74.595,58.273,74.461,58.575z M56.905,70.209
		c0.18,0.177,0.385,0.325,0.609,0.441c0.235,0.122,0.398,0.348,0.441,0.609c-0.096,0.183-0.263,0.32-0.462,0.378
		c-0.374,0.113-0.765,0.163-1.155,0.147c-0.401-0.014-0.803,0.007-1.2,0.063c-0.813,0.084-1.618,0.182-2.415,0.294
		s-1.602,0.224-2.415,0.336c-0.028,0.28-0.049,0.56-0.063,0.84c-0.014,0.281-0.093,0.555-0.231,0.8
		c-0.374-0.126-0.692-0.379-0.9-0.714c-0.21-0.335-0.359-0.705-0.441-1.092c-0.28-1.176-0.539-2.345-0.777-3.507
		c-0.244-1.176-0.648-2.314-1.2-3.381c-0.002-0.188,0.074-0.369,0.21-0.5c0.36-0.001,0.718,0.071,1.05,0.21
		c0.346,0.142,0.72,0.199,1.092,0.168c0.51-0.012,1.018-0.082,1.512-0.21c0.588-0.14,1.197-0.315,1.827-0.525
		c0.63-0.21,1.239-0.427,1.827-0.651s1.078-0.42,1.47-0.588c0.267,0.009,0.53,0.066,0.777,0.168c0.302,0.116,0.596,0.25,0.882,0.4
		c0.294,0.154,0.574,0.315,0.84,0.483c0.227,0.14,0.444,0.294,0.651,0.462c0.145,0.147,0.265,0.315,0.357,0.5
		c0.098,0.186,0.09,0.41-0.021,0.588c-0.228,0.378-0.496,0.73-0.8,1.05c-0.354,0.486-0.643,1.015-0.861,1.575
		C57.303,69.097,57.101,69.649,56.905,70.209z M49.597,66.471l0.588,4.578l4.41-0.966c0.027-0.168,0.09-0.448,0.189-0.84
		s0.204-0.805,0.315-1.239s0.202-0.834,0.273-1.2c0.061-0.233,0.082-0.474,0.063-0.714c-0.084-0.28-0.392-0.427-0.924-0.441
		c-0.584-0.009-1.168,0.04-1.743,0.147c-0.63,0.112-1.253,0.245-1.869,0.4C50.471,66.313,50.036,66.405,49.597,66.471z"/>
	<path d="M86.43,68.486V69.2c0.023,0.231-0.021,0.465-0.126,0.672c-0.225,0.364-0.575,0.434-1.05,0.21
		c-0.539-0.267-1.034-0.614-1.47-1.029c-0.494-0.451-0.957-0.935-1.386-1.449c-0.292-0.33-0.559-0.681-0.8-1.05
		c-0.056-0.476,0.126-0.714,0.546-0.714c0.383,0.016,0.76,0.102,1.113,0.252c0.452,0.178,0.887,0.395,1.3,0.651
		c0.412,0.25,0.798,0.538,1.155,0.861C86.002,67.853,86.245,68.152,86.43,68.486z M83.91,84.446
		c-0.634-0.463-1.135-1.086-1.449-1.806c-0.32-0.717-0.511-1.485-0.567-2.268c0.221-0.194,0.453-0.376,0.693-0.546
		c0.247-0.176,0.479-0.373,0.693-0.588c0.352-0.347,0.663-0.735,0.924-1.155c0.363-0.546,0.734-1.134,1.113-1.764
		s0.757-1.246,1.134-1.848c0.309-0.506,0.653-0.99,1.029-1.449h0.168c0.024,0.488-0.026,0.976-0.147,1.449
		c-0.133,0.541-0.294,1.076-0.483,1.6c-0.196,0.546-0.399,1.079-0.609,1.6c-0.21,0.521-0.385,1.004-0.525,1.449
		c-0.196,0.616-0.378,1.225-0.546,1.827c-0.168,0.602-0.322,1.225-0.462,1.869c-0.006,0.106-0.02,0.211-0.042,0.315
		c-0.028,0.154-0.056,0.315-0.084,0.483s-0.056,0.322-0.084,0.462c-0.019,0.083-0.033,0.167-0.042,0.252
		c-0.084,0.096-0.21,0.143-0.336,0.126L83.91,84.446z M89.076,61.262c-0.561-0.392-1.135-0.819-1.722-1.281
		s-1.133-0.931-1.638-1.407c-0.155-0.116-0.254-0.291-0.273-0.483c-0.014-0.182-0.021-0.385-0.021-0.609
		c0.35-0.091,0.715-0.106,1.071-0.042c0.505,0.06,1.005,0.165,1.491,0.315c0.479,0.144,0.943,0.334,1.386,0.567
		c0.332,0.136,0.601,0.391,0.756,0.714c0.042,0.115,0.071,0.235,0.084,0.357c0.028,0.183,0.049,0.378,0.063,0.588
		s0.027,0.406,0.042,0.588s0.021,0.288,0.021,0.315c-0.057,0.225-0.239,0.344-0.546,0.357
		C89.483,61.254,89.245,61.262,89.076,61.262L89.076,61.262z M117.132,67.52c-1.304,0.254-2.623,0.43-3.948,0.525
		c-1.328,0.101-2.662-0.093-3.906-0.567c-1.742-1.574-3.403-3.235-4.977-4.977c-1.554-1.722-3.129-3.465-4.725-5.229
		c-1.045,2.095-2.209,4.128-3.486,6.09c-1.284,1.96-2.823,3.739-4.578,5.292c-0.28,0.252-0.56,0.497-0.84,0.735
		c-0.279,0.237-0.573,0.455-0.882,0.651c-0.28,0.141-0.568,0.267-0.861,0.378c-0.294,0.112-0.581,0.238-0.861,0.378l-0.21-0.126
		c0.588-0.588,1.267-1.302,2.037-2.142s1.554-1.757,2.352-2.751c0.8-0.993,1.563-2.036,2.289-3.129
		c0.701-1.045,1.326-2.14,1.869-3.276c0.492-1.016,0.859-2.088,1.092-3.192c0.212-0.958,0.191-1.952-0.063-2.9
		c0.301-0.144,0.633-0.209,0.966-0.189c0.366,0.015,0.727,0.086,1.071,0.21c0.34,0.121,0.654,0.306,0.924,0.546
		c0.252,0.216,0.434,0.5,0.525,0.819c-0.136,0.3-0.297,0.589-0.483,0.861c-0.191,0.283-0.353,0.584-0.483,0.9
		c1.144,1.287,2.402,2.468,3.759,3.528c1.329,1.036,2.725,1.983,4.179,2.835c1.455,0.855,2.953,1.639,4.494,2.352
		s3.107,1.406,4.7,2.079L117.132,67.52z M98.988,71.086c0.007,0.202-0.052,0.401-0.168,0.567c-0.115,0.159-0.2,0.336-0.252,0.525
		c-0.172,0.615-0.256,1.251-0.252,1.89V76c-0.003,1.467,0.088,2.933,0.273,4.389c0.183,1.455,0.232,2.925,0.147,4.389
		c-0.061,0.576-0.24,1.134-0.525,1.638c-0.276,0.508-0.623,0.974-1.029,1.386c-0.332-0.065-0.639-0.226-0.882-0.462
		c-0.424-0.336-0.83-0.694-1.218-1.071c-0.42-0.406-0.805-0.791-1.155-1.155s-0.581-0.602-0.693-0.714l0.21-0.126l2.688,0.252
		c0.3-0.455,0.46-0.988,0.462-1.533c0.027-0.63,0.041-1.183,0.042-1.659v-8.526c0-0.252-0.014-0.567-0.042-0.945
		c0.007-0.327-0.193-0.622-0.5-0.735c-0.57,0.115-1.131,0.269-1.68,0.462c-0.561,0.196-1.121,0.363-1.68,0.5
		c-0.057,0.477-0.127,0.939-0.21,1.386c-0.085,0.457-0.127,0.921-0.126,1.386c0.291-0.013,0.579-0.055,0.861-0.126
		c0.373-0.083,0.752-0.132,1.134-0.147c0.343-0.019,0.685,0.031,1.008,0.147c0.293,0.109,0.474,0.403,0.441,0.714
		c-0.525,0.299-1.118,0.458-1.722,0.462c-0.309,0-0.603,0.014-0.882,0.042c-0.279,0.028-0.559,0.07-0.84,0.126l-0.21,0.168
		l-0.168,2.73c0.308-0.055,0.637-0.125,0.987-0.21c0.337-0.082,0.682-0.125,1.029-0.126c0.343-0.003,0.684,0.054,1.008,0.168
		c0.324,0.124,0.603,0.344,0.8,0.63c-0.028,0.168-0.217,0.308-0.567,0.42c-0.384,0.12-0.777,0.204-1.176,0.252
		c-0.434,0.057-0.861,0.099-1.281,0.126s-0.714,0.055-0.882,0.084l-0.126,0.084c-0.028,0.504-0.056,1.029-0.084,1.575
		c-0.028,0.542-0.084,1.081-0.168,1.617c-0.081,0.521-0.229,1.029-0.441,1.512c-0.223,0.493-0.545,0.936-0.945,1.3
		c-0.243,0.024-0.471-0.124-0.546-0.357c-0.075-0.221-0.189-0.428-0.336-0.609c-0.085-0.258-0.128-0.528-0.126-0.8
		c0-0.561,0.13-1.114,0.378-1.617c0.247-0.505,0.444-1.032,0.588-1.575c0.195-0.84,0.384-1.701,0.567-2.583
		c0.18-0.873,0.3-1.757,0.357-2.646c0.056-0.882,0.042-1.766-0.042-2.646c-0.085-0.887-0.297-1.757-0.63-2.583
		c0.001-0.093,0.015-0.184,0.042-0.273c0.028-0.098,0.109-0.172,0.21-0.189c0.275,0.055,0.543,0.139,0.8,0.252l0.756,0.336
		c1.397-0.212,2.73-0.728,3.906-1.512c0.552,0.054,1.088,0.218,1.575,0.483C98.157,70.358,98.6,70.693,98.988,71.086z
		 M104.406,65.122c-0.041,0.18-0.166,0.328-0.336,0.4c-0.168,0.07-0.322,0.133-0.462,0.189c-0.196,0.028-0.532,0.091-1.008,0.189
		s-1.022,0.203-1.638,0.315c-0.616,0.112-1.253,0.21-1.911,0.294c-0.606,0.08-1.216,0.122-1.827,0.126
		c-0.455,0.011-0.909-0.053-1.344-0.189c-0.325-0.079-0.562-0.359-0.588-0.693c0.462-0.192,0.951-0.313,1.449-0.357
		c0.49-0.042,0.973-0.091,1.449-0.147c0.516-0.059,1.024-0.179,1.512-0.357c0.504-0.182,1.008-0.343,1.512-0.483
		c0.485-0.137,0.987-0.201,1.491-0.189c0.525,0.026,1.029,0.209,1.449,0.525L104.406,65.122z M103.356,72.556
		c-0.066,0.572-0.094,1.147-0.084,1.722c0,0.756-0.007,1.533-0.021,2.331c-0.014,0.798-0.056,1.54-0.126,2.226
		c-0.016,0.489-0.137,0.969-0.357,1.407c-0.016,0.102-0.107,0.174-0.21,0.168c-0.1-0.019-0.199-0.047-0.294-0.084
		c-0.357-0.448-0.557-1.002-0.567-1.575c-0.042-0.713-0.042-1.429,0-2.142c0.042-0.77,0.049-1.561,0.021-2.373
		c-0.022-0.786-0.208-1.558-0.546-2.268c-0.008-0.123,0.047-0.242,0.147-0.315c0.095-0.068,0.202-0.118,0.315-0.147
		c0.308,0.141,0.63,0.274,0.966,0.4c0.325,0.117,0.594,0.35,0.756,0.655L103.356,72.556z M107.388,89.188
		c-0.287,0.007-0.566-0.098-0.777-0.294c-0.207-0.193-0.397-0.404-0.567-0.63c-0.548-0.634-1.185-1.185-1.89-1.638
		c-0.708-0.454-1.382-0.959-2.016-1.512v-0.042c0.615,0.055,1.238,0.089,1.869,0.1c0.628,0.014,1.256-0.05,1.869-0.189l0.336-0.378
		c0-2.295,0.014-4.605,0.042-6.93c0.028-2.325-0.042-4.635-0.21-6.93c-0.053-0.493-0.203-0.971-0.441-1.407
		c-0.238-0.434-0.483-0.861-0.735-1.281c-0.028-0.42,0.139-0.637,0.5-0.651c0.419-0.003,0.834,0.083,1.218,0.252
		c0.445,0.181,0.873,0.398,1.281,0.651c0.265,0.134,0.5,0.32,0.693,0.546c0.084,0.18,0.084,0.387,0,0.567
		c-0.08,0.171-0.15,0.346-0.21,0.525c-0.237,0.806-0.372,1.638-0.4,2.478c-0.042,0.924-0.063,1.778-0.063,2.562
		c0,0.924,0.042,1.891,0.126,2.9l0.252,3.024c0.084,1.008,0.154,2.002,0.21,2.982c0.056,0.909,0.056,1.821,0,2.73
		c-0.062,0.471-0.167,0.935-0.315,1.386c-0.14,0.46-0.407,0.871-0.772,1.184L107.388,89.188z"/>
</g>
</svg>